/* XPM */
static char * idiomind_xpm[] = {
"32 32 221 2",
"  	c None",
". 	c #443E46",
"+ 	c #47414A",
"@ 	c #4A434D",
"# 	c #504953",
"$ 	c #544D57",
"% 	c #4E4751",
"& 	c #474049",
"* 	c #433D45",
"= 	c #524B55",
"- 	c #7E7A81",
"; 	c #A4A2A5",
"> 	c #C0BEC0",
", 	c #D2D2D2",
"' 	c #D9D9D9",
") 	c #DADADA",
"! 	c #D0CFCF",
"~ 	c #BCBABC",
"{ 	c #A09DA1",
"] 	c #7D787F",
"^ 	c #534C56",
"/ 	c #463F48",
"( 	c #9A979C",
"_ 	c #D5D5D6",
": 	c #D8D8D8",
"< 	c #D6D6D6",
"[ 	c #D7D7D7",
"} 	c #DBDBDB",
"| 	c #DBDCDB",
"1 	c #ABA8AC",
"2 	c #68626B",
"3 	c #47404A",
"4 	c #3D383F",
"5 	c #6E6871",
"6 	c #D3D3D3",
"7 	c #D9DAD9",
"8 	c #DCDCDC",
"9 	c #DDDDDD",
"0 	c #E3E4E3",
"a 	c #B1AFB2",
"b 	c #59525C",
"c 	c #746E76",
"d 	c #E1E1E1",
"e 	c #DEDEDE",
"f 	c #DFDFDF",
"g 	c #E0E0E0",
"h 	c #E2E2E2",
"i 	c #756F78",
"j 	c #423D45",
"k 	c #5A535C",
"l 	c #E3E3E3",
"m 	c #E4E4E4",
"n 	c #E5E5E5",
"o 	c #E6E6E6",
"p 	c #E7E7E7",
"q 	c #ECECEC",
"r 	c #817D84",
"s 	c #413B43",
"t 	c #3F3A41",
"u 	c #AAA6AA",
"v 	c #E8E8E8",
"w 	c #E9E9E9",
"x 	c #EAEAEA",
"y 	c #EBEBEB",
"z 	c #F1F1F1",
"A 	c #716C74",
"B 	c #423B45",
"C 	c #DFDEDF",
"D 	c #EDEDED",
"E 	c #EEEEEE",
"F 	c #EFEFEF",
"G 	c #F0F0F0",
"H 	c #4D4650",
"I 	c #433C46",
"J 	c #F2F2F2",
"K 	c #F3F3F3",
"L 	c #F4F4F4",
"M 	c #F5F5F5",
"N 	c #F7F7F7",
"O 	c #969298",
"P 	c #413C43",
"Q 	c #A8A5AA",
"R 	c #F8F8F8",
"S 	c #F6F6F6",
"T 	c #F9F9F9",
"U 	c #FAFAFA",
"V 	c #D7D5D8",
"W 	c #433C45",
"X 	c #48414B",
"Y 	c #918C93",
"Z 	c #E2E1E2",
"` 	c #FFFFFF",
" .	c #FBFBFB",
"..	c #FCFCFC",
"+.	c #FDFDFD",
"@.	c #FEFEFE",
"#.	c #4F4B51",
"$.	c #564E59",
"%.	c #514A54",
"&.	c #C2BFC3",
"*.	c #B4B7B3",
"=.	c #A387B0",
"-.	c #9476A2",
";.	c #6B5974",
">.	c #B1AEB2",
",.	c #D8D7D9",
"'.	c #BCBFBB",
").	c #9C7BAB",
"!.	c #9E7FAD",
"~.	c #9275A0",
"{.	c #554E58",
"].	c #DCDADC",
"^.	c #7D7880",
"/.	c #9A79AA",
"(.	c #9E80AE",
"_.	c #856C91",
":.	c #514856",
"<.	c #6D676F",
"[.	c #7C777D",
"}.	c #949096",
"|.	c #9C989E",
"1.	c #7E7980",
"2.	c #A6A2A7",
"3.	c #C9C7CA",
"4.	c #E8E6E8",
"5.	c #FEFDFE",
"6.	c #D9D7D9",
"7.	c #7E7880",
"8.	c #423C44",
"9.	c #B6B9B5",
"0.	c #9E80AD",
"a.	c #9A7CA9",
"b.	c #866C93",
"c.	c #7D6589",
"d.	c #564F59",
"e.	c #EDECEE",
"f.	c #534858",
"g.	c #7E678A",
"h.	c #6F5D77",
"i.	c #5E5165",
"j.	c #524857",
"k.	c #4C4450",
"l.	c #4A434E",
"m.	c #594E5E",
"n.	c #5C5A5D",
"o.	c #AA91B6",
"p.	c #A081AF",
"q.	c #66566E",
"r.	c #B9B5B9",
"s.	c #CCCACD",
"t.	c #6B5973",
"u.	c #9F80AE",
"v.	c #9D7EAC",
"w.	c #997BA8",
"x.	c #9779A6",
"y.	c #AE97BA",
"z.	c #787977",
"A.	c #BEAEC5",
"B.	c #90749E",
"C.	c #D0CED1",
"D.	c #695870",
"E.	c #A080AF",
"F.	c #C1B3C8",
"G.	c #BFBBC0",
"H.	c #9B7AAB",
"I.	c #766180",
"J.	c #716B73",
"K.	c #EBEAEB",
"L.	c #5A4D60",
"M.	c #9B7BAB",
"N.	c #B1AFB1",
"O.	c #B5A0BE",
"P.	c #6A5973",
"Q.	c #716C73",
"R.	c #F9F9FA",
"S.	c #57505B",
"T.	c #9A7BA8",
"U.	c #BAA7C3",
"V.	c #5C5D5C",
"W.	c #BEBEBF",
"X.	c #9F81AE",
"Y.	c #9E7FAE",
"Z.	c #725E7C",
"`.	c #554F58",
" +	c #B7B4B8",
".+	c #8B878D",
"++	c #816A8D",
"@+	c #A183AF",
"#+	c #AEAEAE",
"$+	c #C8C3CA",
"%+	c #9D7DAC",
"&+	c #8B7098",
"*+	c #63556A",
"=+	c #524A56",
"-+	c #73617C",
";+	c #9D7EAD",
">+	c #C5C1C7",
",+	c #C9C4CA",
"'+	c #A082AE",
")+	c #9A7BA9",
"!+	c #C6C2C8",
"~+	c #BEBEBE",
"{+	c #B7A3C0",
"]+	c #B9A7C2",
"^+	c #B4B4B4",
"/+	c #7C7D7C",
"(+	c #C1BFC2",
"_+	c #C0B1C7",
":+	c #AB92B6",
"<+	c #9B7AAA",
"[+	c #9A7AAA",
"}+	c #AC93B7",
"|+	c #C2B4C9",
"1+	c #BCBBBD",
"2+	c #696A68",
"3+	c #90918F",
"4+	c #AAACA9",
"5+	c #B3B4B3",
"6+	c #B3B3B2",
"7+	c #A7A9A6",
"8+	c #898A88",
"                                                                ",
"                                                                ",
"                                                                ",
"                    . + @ # $ % @ & .                           ",
"              * = - ; > , ' ' ) ! ~ { ] ^ /                     ",
"            $ ( _ : < < < < [ [ [ : : } | 1 2 3                 ",
"        4 5 6 7 ) ) ) ) } } } 8 8 8 8 8 9 9 0 a b               ",
"        c d 9 e e e f f f f g g g g d d d h h h g i j           ",
"      k d h h h h l l l m m m m n n n o o o o p p q r s         ",
"    t u o o o p p p v v v v w w w w x x x x y y y q z A         ",
"    B C x y y y q q q q D D D D E E E E F F F G G G G o H       ",
"    I E F F F G G G G z z z J J J J K K K L L L L M M N O       ",
"    P Q R L L L L M M M S S S S N N N N R R R R T T T U V W     ",
"      X Y Z ` ` T T U U U U U  . . .........+.+.+.@.@.@. .I     ",
"        #.$.%.^ &.@.@.@.@.` ` ` ` ` ` ` ` ` ` ` ` ` ` ` ..I     ",
"        *.=.-.;.>.` ` ` ` ` ` ` ` ` ` ` ` ` ` ` ` ` ` ` ,.W     ",
"        '.).!.~.{.].` ` ` ` ` ` ` ` ` ` ` ` ` ` ` ` ` ` ^.      ",
"        './.!.(._.:.<.[.}.` ` ` ` ` |.1.2.3.4.5.` @.6.7.8.      ",
"        9.!.!.!.0.a.b.c.d.` ` ` ` e.f.g.h.i.j.k.l.k.m.n.        ",
"          o.!.!.!.!.!.p.q.r.` ` ` s.t.p.u.u.v.w.x.w.y.z.        ",
"          A.!.!.!.!.!.!.B.$.T ` ` C.D.E.!.!.!.!.!.!.F.          ",
"          G.H.!.!.!.!.!.u.I.J.` ` K.L.E.!.!.!.!.!.M.N.          ",
"            O.!.!.!.!.!.!.u.P.Q.R.` S.T.!.!.!.!.!.U.V.          ",
"            W.X.!.!.!.!.!.!.Y.Z.`. +.+++!.!.!.!.@+#+            ",
"              $+%+!.!.!.!.!.!.u.&+*+=+-+u.!.!.;+>+              ",
"                ,+'+!.!.!.!.!.!.!.u.)+v.!.!.@+!+                ",
"                  ~+{+M.!.!.!.!.!.!.!.!.).]+^+                  ",
"                    /+(+_+:+!.<+[+!.}+|+1+2+                    ",
"                          3+4+5+6+7+8+                          ",
"                                                                ",
"                                                                ",
"                                                                "};
