/* XPM */
static char * tray_xpm[] = {
"48 48 258 2",
"  	c None",
". 	c #ACACAC",
"+ 	c #A4A4A4",
"@ 	c #A5A5A5",
"# 	c #A4A3A3",
"$ 	c #A3A3A3",
"% 	c #7B7B7B",
"& 	c #FFFFFF",
"* 	c #F9F9F9",
"= 	c #FAFAFA",
"- 	c #FAFAFB",
"; 	c #FAFBFB",
"> 	c #FBFBFB",
", 	c #FBFCFC",
"' 	c #FCFCFC",
") 	c #F5F5F5",
"! 	c #7B7A7A",
"~ 	c #E1E1E2",
"{ 	c #E0E1E2",
"] 	c #E2E3E4",
"^ 	c #E3E4E5",
"/ 	c #E4E5E6",
"( 	c #E6E8E7",
"_ 	c #E8E9E9",
": 	c #E9EAEA",
"< 	c #EAEBEB",
"[ 	c #ECEDED",
"} 	c #EDEEEE",
"| 	c #EEEEEE",
"1 	c #F0F1F1",
"2 	c #F1F1F1",
"3 	c #F1F2F2",
"4 	c #F2F2F2",
"5 	c #F4F4F4",
"6 	c #F6F6F6",
"7 	c #F7F7F7",
"8 	c #F3F0F6",
"9 	c #5D3B7F",
"0 	c #7753A9",
"a 	c #E5E6E6",
"b 	c #E6E7E8",
"c 	c #E7E8E8",
"d 	c #E9EAE9",
"e 	c #EBECEC",
"f 	c #EDEDED",
"g 	c #EEEFEF",
"h 	c #EFF0F0",
"i 	c #F0F0F0",
"j 	c #F3F3F3",
"k 	c #F4F5F5",
"l 	c #F8F8F8",
"m 	c #FCFDFB",
"n 	c #F2EFF5",
"o 	c #9F82BC",
"p 	c #7A4CA4",
"q 	c #8C62B0",
"r 	c #A287C3",
"s 	c #E5E6E7",
"t 	c #EFECF2",
"u 	c #9B7EB8",
"v 	c #794BA3",
"w 	c #8A5FAF",
"x 	c #B797CD",
"y 	c #AB83C5",
"z 	c #8862B2",
"A 	c #E6E7E9",
"B 	c #EBEDED",
"C 	c #F2F3F3",
"D 	c #F0EEF4",
"E 	c #9C7EBA",
"F 	c #865AAC",
"G 	c #BB9ED0",
"H 	c #AC84C6",
"I 	c #9163B5",
"J 	c #764DA5",
"K 	c #684E9C",
"L 	c #F0F2F2",
"M 	c #A286BE",
"N 	c #784BA1",
"O 	c #875BAD",
"P 	c #BFA3D3",
"Q 	c #A880C4",
"R 	c #9464B6",
"S 	c #684799",
"T 	c #5A3F87",
"U 	c #F3F2F6",
"V 	c #A58BBF",
"W 	c #754BA1",
"X 	c #BB9CD0",
"Y 	c #A982C4",
"Z 	c #5B4088",
"` 	c #7A7979",
" .	c #F6F5F5",
"..	c #FDFDFD",
"+.	c #F1EEF4",
"@.	c #A084BC",
"#.	c #B595CD",
"$.	c #784CA6",
"%.	c #5C408A",
"&.	c #797A7A",
"*.	c #ECECEC",
"=.	c #EDE9F1",
"-.	c #8A60AE",
";.	c #B494CC",
">.	c #AD86C6",
",.	c #9262B4",
"'.	c #784DA5",
").	c #69489A",
"!.	c #5D408C",
"~.	c #7A7A7A",
"{.	c #EEEAF2",
"].	c #9A7CB8",
"^.	c #8559AB",
"/.	c #9261B5",
"(.	c #6B499D",
"_.	c #9F83BB",
":.	c #8356AA",
"<.	c #C4AAD6",
"[.	c #A77FC3",
"}.	c #794EA6",
"|.	c #6B499F",
"1.	c #674F8F",
"2.	c #A78EC0",
"3.	c #744AA0",
"4.	c #885DAD",
"5.	c #A67DC3",
"6.	c #9365B7",
"7.	c #6A5193",
"8.	c #BCBAC0",
"9.	c #EEF0F0",
"0.	c #EFEFEF",
"a.	c #F0EDF3",
"b.	c #8C63AF",
"c.	c #AA82C4",
"d.	c #6A489C",
"e.	c #705997",
"f.	c #B2AEB8",
"g.	c #CECFCD",
"h.	c #ECE8F0",
"i.	c #9C7FB9",
"j.	c #8B61AF",
"k.	c #B493CB",
"l.	c #9363B5",
"m.	c #715B97",
"n.	c #A9A5B1",
"o.	c #C8C9C7",
"p.	c #CFCFCF",
"q.	c #997BB7",
"r.	c #BA9BCF",
"s.	c #6A5292",
"t.	c #A6A2AC",
"u.	c #C0C0C0",
"v.	c #CACACA",
"w.	c #D2D2D2",
"x.	c #F1F3F3",
"y.	c #8255A9",
"z.	c #A97FC3",
"A.	c #6D4BA1",
"B.	c #62498D",
"C.	c #A7A5A9",
"D.	c #BABBB9",
"E.	c #C3C3C3",
"F.	c #CBCBCB",
"G.	c #E6E6E6",
"H.	c #A48ABE",
"I.	c #A57CC2",
"J.	c #6C4AA0",
"K.	c #644A8E",
"L.	c #A4A3A5",
"M.	c #B4B4B4",
"N.	c #BDBDBD",
"O.	c #FBFBFC",
"P.	c #F0ECF4",
"Q.	c #73499F",
"R.	c #B99ACE",
"S.	c #794DA7",
"T.	c #695290",
"U.	c #9A979F",
"V.	c #B9B9B9",
"W.	c #D4D4D4",
"X.	c #FEFEFE",
"Y.	c #FAFBFD",
"Z.	c #F2EFEA",
"`.	c #A08AB8",
" +	c #8961AF",
".+	c #B393CB",
"++	c #7C4EA6",
"@+	c #6D499F",
"#+	c #6D5692",
"$+	c #8E8A96",
"%+	c #E2E2E2",
"&+	c #D6C3A3",
"*+	c #907F9F",
"=+	c #8D64B0",
"-+	c #B593CD",
";+	c #6E4AA0",
">+	c #695191",
",+	c #86818D",
"'+	c #A0A0A0",
")+	c #CDCDCD",
"!+	c #FDFFFF",
"~+	c #D0B993",
"{+	c #D6B47C",
"]+	c #A491B5",
"^+	c #A888C0",
"/+	c #6F4BA1",
"(+	c #644A90",
"_+	c #85828A",
":+	c #E1E1E1",
"<+	c #FBFCFD",
"[+	c #F0ECE7",
"}+	c #DCBF91",
"|+	c #E4C188",
"1+	c #E3C088",
"2+	c #A98DA3",
"3+	c #7B51A5",
"4+	c #62488E",
"5+	c #888789",
"6+	c #B1B1B1",
"7+	c #FEFFFF",
"8+	c #D6D0C4",
"9+	c #CCB081",
"0+	c #E2C087",
"a+	c #D6B581",
"b+	c #C1A67E",
"c+	c #8B7995",
"d+	c #705686",
"e+	c #959397",
"f+	c #C9C9C9",
"g+	c #FEFDFC",
"h+	c #A0A09C",
"i+	c #645E4D",
"j+	c #BEA377",
"k+	c #C2A880",
"l+	c #B19E80",
"m+	c #A99B85",
"n+	c #B9B6B0",
"o+	c #E8E9EB",
"p+	c #F8F6F4",
"q+	c #B8B3AA",
"r+	c #918E87",
"s+	c #BEB7AD",
"t+	c #DEDBD7",
"u+	c #E8E5E2",
"v+	c #F9FAFC",
"w+	c #FBFBFA",
"x+	c #FEFEFF",
"y+	c #797979",
"z+	c #808080",
"A+	c #787878",
"B+	c #777777",
"C+	c #767676",
"D+	c #747474",
"E+	c #717171",
"F+	c #6F6F6F",
"G+	c #6E6E6E",
"H+	c #6D6D6D",
"I+	c #707070",
"                                                                                                ",
"                                                                                                ",
"                                                                                                ",
"                                                                                                ",
"                                                                                                ",
"                                                                                                ",
"                                                                                                ",
"                  . + @ @ + + + + + + + + + + + + + + + # $ $ $ $ $ @                           ",
"                % & * * * = = - = ; ; > > , ' ' ' ' ' ' ' ' ' ' ' ' )                           ",
"                ! & ~ { ] ^ / ( _ : : < [ [ } | 1 2 3 4 5 ) ) 6 7 ' 8 9 0                       ",
"                % & a a b c d < e [ f } g h i 3 4 j 5 k 6 6 l l m n o p q r                     ",
"                % & s s c _ < e [ f } g h i 3 4 j 5 k 6 6 l l m t u v w x y z                   ",
"                % & A c _ < e B f | g h i 3 C j 5 k ) 6 l l > D E v F G H I J K                 ",
"                % & _ _ < e e f } g h i L 4 j 5 k ) 6 l l = n M N O P Q R J S T                 ",
"                % & : : e e f } g h i L 4 j 5 k ) 6 l l = U V W w X Y R J S Z                   ",
"                ` & < e B f } g h i L 4 C 5 k  .6 l l ..+.@.W q #.H I $.S %.                    ",
"                &.& *.[ f } g h i 3 4 j 5 k 6 6 l l ..=.u N -.;.>.,.'.).!.                      ",
"                ~.& [ f | g h i 3 C j 5 k  .6 l l m {.].N ^.G y /.'.(.T                         ",
"                ~.& } } g h i L 4 j 5 k ) 6 l l = +._.N :.<.[.R }.|.1.                          ",
"                ~.& g g h i L 4 j 5 k ) 6 l l = n 2.3.4.P 5.6.}.(.7.8.                          ",
"                ~.& 9.0.i L 4 C 5 k ) 6 l l ..a.V 3.b.x c.R $.d.e.f.g.                          ",
"                ~.& 1 i 3 4 j 5 k  .6 l l ..h.i.3.j.k.H l.}.(.m.n.o.p.                          ",
"                ~.& 1 3 C j 5 k 6 6 l l ..h.q.N ^.r.H /.}.|.s.t.u.v.w.                          ",
"                ~.& x.4 j 5 k  .6 l l = a.i.N y.<.z.l.}.A.B.C.D.E.F.G.                          ",
"                ~.& j C 5 k ) 6 l l = n H.3.^.<.I.6.}.J.K.L.M.N.F.f *                           ",
"                ~.& j 5 k ) 6 l l O.P.2.Q.-.R.z.6.S.|.T.U.. V.W.) X.l                           ",
"                ~.& k k ) 6 l l Y.Z.`.3. +.+H R ++@+#+$+$ N.%+> ' 7 l                           ",
"                ~.& ) ) 6 l l * & &+*+=+-+>./.}.;+>+,+'+)+j X.> j 4 l                           ",
"                ~.& 6 6 l l * = !+~+{+]+^+/.}./+(+_+@ :+..X.= ) f 2 l                           ",
"                ~.& 6 l l * = <+[+}+|+1+2+3+/+4+5+6+6 & X.= ) | *.4 l                           ",
"                ~.& l l * = = 7+8+9+0+a+b+c+d+e+f+& & X.= ) | *.| j l                           ",
"                ~.& l * = = > g+h+i+j+k+l+m+n+o+& X.X.= ) | *.0.0.) l                           ",
"                ~.& * = = > O.p+q+r+s+t+u+*.v+& & X.= ) f f 0.2 4 6 l                           ",
"                ~.& = = > > > O.> w+' x+X.X.X.& X.= ) f f 0.i 4 j l l                           ",
"                ~.& = > > > > ' ' ........X.& X.= ) | f 0.i 4 5 ) * l                           ",
"                ~.& = > > > ' ' ........X.& X.= ) | *.0.i 4 5 ) 7 = l                           ",
"                ~.& > > > ' ' ........X.X.X.= 5 | *.| i 4 j ) 7 l ' l                           ",
"                y+& > > ' ' ........X.X.X.= ) | | 0.2 j 5 7 7 * > ..l                           ",
"                z+& & & & & & & & & & & & & & & & & & & & & & & & & >                           ",
"                  z+A+B+C+D+D+E+E+F+F+F+G+H+H+H+H+H+H+G+G+F+F+I+E+E+D+                          ",
"                                                                                                ",
"                                                                                                ",
"                                                                                                ",
"                                                                                                ",
"                                                                                                ",
"                                                                                                ",
"                                                                                                ",
"                                                                                                "};
