/* XPM */
static char * tray_xpm[] = {
"52 51 16 1",
" 	c None",
".	c #777270",
"+	c #8D7F8D",
"@	c #938396",
"#	c #97859B",
"$	c #887D88",
"%	c #75716D",
"&	c #A18BA9",
"*	c #A58EAE",
"=	c #A18BA8",
"-	c #918294",
";	c #9A8B9B",
">	c #A48FAB",
",	c #928690",
"'	c #82797F",
")	c #81797E",
"                                                    ",
"                                                    ",
"                                                    ",
"                                                    ",
"                                                    ",
"                                                    ",
"                                                    ",
"         .+@############################@$.         ",
"        %&********************************=%        ",
"        -**********************************$        ",
"        @**********************************@        ",
"        #**********************************#        ",
"        #**********************************#        ",
"        #**********************************#        ",
"        #**********************************#        ",
"        #*******               ************#        ",
"        #*******               ************#        ",
"        #*******               ************#        ",
"        #*******               ************#        ",
"        #**********************************#        ",
"        #**********************************#        ",
"        #**********************************#        ",
"        #**********************************#        ",
"        #*******                    *******#        ",
"        #*******                    *******#        ",
"        #*******                    *******#        ",
"        #*******                    *******#        ",
"        #**********************************#        ",
"        #**********************************#        ",
"        #**********************************#        ",
"        #**********************************#        ",
"        #*******                    *******#        ",
"        #*******                    *******#        ",
"        #*******                    *******#        ",
"        #*******                    *******#        ",
"        #**********************************#        ",
"        #**********************************#        ",
"        #**********************************#        ",
"        +**********************************#        ",
"        ;>*********************************@        ",
"        ,>*********************************'        ",
"        .&********************************=%        ",
"         %)@############################@$%         ",
"                                                    ",
"                                                    ",
"                                                    ",
"                                                    ",
"                                                    ",
"                                                    ",
"                                                    ",
"                                                    "};
